<svg xmlns="http://www.w3.org/2000/svg" viewBox="0 0 11.13 10.16"><defs><style>.cls-1{fill:#fff;}</style></defs><title>Ativo 1</title><g id="Camada_2" data-name="Camada 2"><g id="Camada_1-2" data-name="Camada 1"><path class="cls-1" d="M0,3.52V3s0,0,0-.05,0-.23.05-.34A3.11,3.11,0,0,1,.91,1,3.23,3.23,0,0,1,3.09,0,3.19,3.19,0,0,1,4,.09,3.29,3.29,0,0,1,5.53.92s0,0,0,0L5.72.81a3.23,3.23,0,0,1,2-.8,3.15,3.15,0,0,1,.75,0,3.27,3.27,0,0,1,1.8,1,3.19,3.19,0,0,1,.86,2,3.32,3.32,0,0,1-.11,1,3.19,3.19,0,0,1-.86,1.46L5.6,10.13s0,0,0,0l0,0-1-1L1,5.59a3.56,3.56,0,0,1-.61-.83A3.23,3.23,0,0,1,0,3.58.07.07,0,0,0,0,3.52Z"/></g></g></svg>