<svg xmlns="http://www.w3.org/2000/svg" viewBox="0 0 127.56 22.68"><defs><style>.cls-1{fill:#fff;}</style></defs><title>12Ativo 5</title><g id="Camada_2" data-name="Camada 2"><g id="Camada_1-2" data-name="Camada 1"><path class="cls-1" d="M2.73,10.05l.53-.61A4.3,4.3,0,0,0,0,7.93v.76A3.6,3.6,0,0,1,2.65,9.9Zm5.68,3.56a3.66,3.66,0,0,1-2.42-1l-.46.6a4.07,4.07,0,0,0,2.88,1.14v1.14L11.06,14,8.41,12.48Zm0-4.54V10.2l2.65-1.51L8.41,7.17V8.31A4,4,0,0,0,5.23,9.82l-2.58,3A3.6,3.6,0,0,1,0,14v.76a4,4,0,0,0,3.18-1.52l2.58-3A3.62,3.62,0,0,1,8.41,9.07Z"/><path class="cls-1" d="M35.56,7.17l-6.06,3.5V7.55H28v7.58H29.5V12l6.06,3.5Z"/><path class="cls-1" d="M92.08,15.71,98.44,12v3.27H100V7.37H98.44v3.27L92.08,7Z"/><path class="cls-1" d="M120.36,8.69h3.41V9.82l2.65-1.51-2.65-1.52V7.93h-3.41A3.39,3.39,0,0,0,117,11.34a2.92,2.92,0,0,0,.3,1.36l.68-.38a2.08,2.08,0,0,1-.22-1A2.68,2.68,0,0,1,120.36,8.69Zm6.9,1.28-.69.38a2,2,0,0,1,.23,1A2.68,2.68,0,0,1,124.15,14h-3.41V12.85l-2.65,1.52,2.65,1.52V14.75h3.41a3.4,3.4,0,0,0,3.41-3.41A3.09,3.09,0,0,0,127.26,10Z"/><path class="cls-1" d="M63.82,0A11.34,11.34,0,1,0,75.16,11.34,11.34,11.34,0,0,0,63.82,0ZM62.46,15.44H60.4V7.2h2.06Zm4.81,0H65.21V7.2h2.06Z"/></g></g></svg>