<svg xmlns="http://www.w3.org/2000/svg" viewBox="0 0 127.56 8.27"><defs><style>.cls-1{fill:#fff;}.cls-2{fill:#434142;}</style></defs><title>Ativo 2</title><g id="Camada_2" data-name="Camada 2"><g id="Camada_1-2" data-name="Camada 1"><path class="cls-1" d="M.62,8a1,1,0,0,1-.25-.74V5.65a1,1,0,0,1,.26-.74,1,1,0,0,1,.75-.27,1,1,0,0,1,.75.27,1,1,0,0,1,.26.74V7.27A1,1,0,0,1,2.13,8a1,1,0,0,1-.75.26A1,1,0,0,1,.62,8Zm1.26-.24A.72.72,0,0,0,2,7.27V5.65a.68.68,0,0,0-.16-.5A.64.64,0,0,0,1.38,5a.64.64,0,0,0-.5.18.68.68,0,0,0-.16.5V7.27a.72.72,0,0,0,.16.5.64.64,0,0,0,.5.18A.64.64,0,0,0,1.88,7.77Z" transform="translate(0)"/><path class="cls-1" d="M3,5.65h.4v.41H3ZM3,7.84h.4v.4H3Z" transform="translate(0)"/><path class="cls-1" d="M4.73,8.27l-.23-.1a.83.83,0,0,1-.36-.31A1.15,1.15,0,0,1,4,7.38h.36a.68.68,0,0,0,.12.3.59.59,0,0,0,.24.2A1,1,0,0,0,5,7.94a.64.64,0,0,0,.49-.17.62.62,0,0,0,.18-.48v-.1a.58.58,0,0,0-.65-.63H4.8V6.23h.25a.58.58,0,0,0,.43-.15.49.49,0,0,0,.16-.4V5.57a.58.58,0,0,0-.16-.43A.61.61,0,0,0,5,5a.6.6,0,0,0-.3.07.55.55,0,0,0-.22.18.7.7,0,0,0-.13.29H4a1.33,1.33,0,0,1,.19-.47.89.89,0,0,1,.34-.3A1.21,1.21,0,0,1,5,4.65a1,1,0,0,1,.71.24A.89.89,0,0,1,6,5.57v.11a.75.75,0,0,1-.12.43.63.63,0,0,1-.33.27.6.6,0,0,1,.37.27,1,1,0,0,1,.14.54V7.3a1.12,1.12,0,0,1-.12.53.86.86,0,0,1-.35.33A1.18,1.18,0,0,1,5,8.27Z" transform="translate(0)"/><path class="cls-1" d="M7.27,8.17a.84.84,0,0,1-.34-.31,1.14,1.14,0,0,1-.17-.48h.35a.64.64,0,0,0,.2.42.68.68,0,0,0,.44.14.61.61,0,0,0,.47-.17.64.64,0,0,0,.17-.49V6.77a.66.66,0,0,0-.14-.47.52.52,0,0,0-.41-.17.73.73,0,0,0-.38.11,1.08,1.08,0,0,0-.32.32H6.83V4.69H8.64V5H7.19V6.08a1,1,0,0,1,.3-.21,1,1,0,0,1,.36-.07,1,1,0,0,1,.48.11.76.76,0,0,1,.31.33,1.22,1.22,0,0,1,.11.53v.51a1.13,1.13,0,0,1-.12.54.8.8,0,0,1-.34.34,1.13,1.13,0,0,1-.54.11A1.06,1.06,0,0,1,7.27,8.17Z" transform="translate(0)"/><path class="cls-1" d="M119.07,7.7l-.23-.1a.83.83,0,0,1-.36-.31,1,1,0,0,1-.17-.48h.35a.68.68,0,0,0,.12.3.59.59,0,0,0,.24.2,1,1,0,0,0,.35.06.64.64,0,0,0,.49-.17.62.62,0,0,0,.18-.48V6.61a.62.62,0,0,0-.17-.46.65.65,0,0,0-.48-.17h-.25V5.66h.25a.62.62,0,0,0,.44-.15.52.52,0,0,0,.15-.4V5a.58.58,0,0,0-.16-.43.7.7,0,0,0-.75-.09.55.55,0,0,0-.22.18.7.7,0,0,0-.13.29h-.36a1.33,1.33,0,0,1,.19-.47.89.89,0,0,1,.34-.3,1.06,1.06,0,0,1,.48-.1,1,1,0,0,1,.71.24.89.89,0,0,1,.25.68v.11a.75.75,0,0,1-.12.43.63.63,0,0,1-.33.27.6.6,0,0,1,.37.27,1,1,0,0,1,.14.54v.1a1.07,1.07,0,0,1-.12.53.82.82,0,0,1-.35.34,1.31,1.31,0,0,1-.55.11Z" transform="translate(0)"/><path class="cls-1" d="M121.1,5.08h.4v.4h-.4Zm0,2.19h.4v.4h-.4Z" transform="translate(0)"/><path class="cls-1" d="M122.74,7.6a.84.84,0,0,1-.34-.31,1.3,1.3,0,0,1-.17-.48h.35a.64.64,0,0,0,.2.42.76.76,0,0,0,.92,0,.69.69,0,0,0,.17-.49V6.19a.65.65,0,0,0-.15-.46.5.5,0,0,0-.4-.17.77.77,0,0,0-.39.11,1.08,1.08,0,0,0-.32.32h-.3V4.12h1.81v.32h-1.46V5.51a1,1,0,0,1,.3-.21.86.86,0,0,1,.36-.07,1.07,1.07,0,0,1,.49.11.8.8,0,0,1,.3.33,1.21,1.21,0,0,1,.11.52v.52a1.13,1.13,0,0,1-.12.54.8.8,0,0,1-.34.34,1.27,1.27,0,0,1-.54.11A1.06,1.06,0,0,1,122.74,7.6Z" transform="translate(0)"/><path class="cls-1" d="M125.81,7.67h-.35V4.41l-.66.41V4.45l.51-.33h.5Z" transform="translate(0)"/><rect class="cls-2" y="0.64" width="127.56" height="2.27" rx="1.13"/><circle class="cls-1" cx="22.73" cy="1.77" r="1.77"/><rect class="cls-1" y="0.64" width="22.73" height="2.27" rx="1.13"/></g></g></svg>